<svg xmlns="http://www.w3.org/2000/svg" viewBox="0 0 160 160" role="img" aria-labelledby="t d"><title id="t">Terraviva</title><desc id="d">Green circular climate and nature emblem</desc><circle cx="80" cy="80" r="76" fill="#087f5b"/><circle cx="80" cy="80" r="62" fill="none" stroke="#d8f3dc" stroke-width="3"/><path d="M80 112V48M80 72C64 54 45 57 39 61c4 18 18 30 41 27M80 82c16-18 35-15 41-11-4 18-18 30-41 27M80 98c-10-12-22-13-31-10 5 14 15 22 31 22M80 98c10-12 22-13 31-10-5 14-15 22-31 22" fill="none" stroke="#fff" stroke-width="6" stroke-linecap="round" stroke-linejoin="round"/><path d="M50 122h60" stroke="#d8f3dc" stroke-width="4" stroke-linecap="round"/><circle cx="80" cy="80" r="8" fill="#d8f3dc"/></svg>